<?xml version="1.0" encoding="UTF-8" standalone="no"?>
<svg
   height="187.30mm"
   viewBox="0.0 0.0 216.20 187.30"
   width="216.20mm"
   version="1.1"
   id="svg29"
   sodipodi:docname="ClosedBox_Arduino.svg"
   inkscape:version="1.2 (dc2aedaf03, 2022-05-15)"
   xmlns:inkscape="http://www.inkscape.org/namespaces/inkscape"
   xmlns:sodipodi="http://sodipodi.sourceforge.net/DTD/sodipodi-0.dtd"
   xmlns="http://www.w3.org/2000/svg"
   xmlns:svg="http://www.w3.org/2000/svg"
   xmlns:rdf="http://www.w3.org/1999/02/22-rdf-syntax-ns#"
   xmlns:cc="http://creativecommons.org/ns#"
   xmlns:dc="http://purl.org/dc/elements/1.1/">
  <defs
     id="defs33" />
  <sodipodi:namedview
     id="namedview31"
     pagecolor="#ffffff"
     bordercolor="#000000"
     borderopacity="0.25"
     inkscape:showpageshadow="2"
     inkscape:pageopacity="0.0"
     inkscape:pagecheckerboard="0"
     inkscape:deskcolor="#d1d1d1"
     inkscape:document-units="mm"
     showgrid="false"
     inkscape:zoom="1.1786686"
     inkscape:cx="180.28817"
     inkscape:cy="151.86627"
     inkscape:window-width="727"
     inkscape:window-height="414"
     inkscape:window-x="639"
     inkscape:window-y="354"
     inkscape:window-maximized="1"
     inkscape:current-layer="svg29" />
  <!--
ClosedBox - Fully closed box


This box is more of a building block than a finished item.
Use a vector graphics program (like Inkscape) to add holes or adjust the base
plate.

See BasedBox for variant with a base.


Created with Boxes.py (https://festi.info/boxes.py)
Creation date: 2022-06-30 14:08:11
Command line (remove spaces between dashes): boxes ClosedBox - -FingerJoint_angle=90.0 - -FingerJoint_style=rectangular - -FingerJoint_surroundingspaces=2.0 - -FingerJoint_edge_width=1.0 - -FingerJoint_extra_length=0.0 - -FingerJoint_finger=2.0 - -FingerJoint_play=0.0 - -FingerJoint_space=2.0 - -FingerJoint_width=1.0 - -x=91 - -y=54 - -h=40 - -outside=0 - -thickness=3.0 - -format=svg - -tabs=0.0 - -debug=0 - -labels=0 - -reference=100 - -inner_corners=loop - -burn=0.1
Url: http://festi.info/ClosedBox?FingerJoint_angle=90.0&FingerJoint_style=rectangular&FingerJoint_surroundingspaces=2.0&FingerJoint_edge_width=1.0&FingerJoint_extra_length=0.0&FingerJoint_finger=2.0&FingerJoint_play=0.0&FingerJoint_space=2.0&FingerJoint_width=1.0&x=91&y=54&h=40&outside=0&thickness=3.0&format=svg&tabs=0.0&debug=0&labels=0&reference=100&inner_corners=loop&burn=0.1&render=1
SettingsUrl: http://festi.info/ClosedBox?FingerJoint_angle=90.0&FingerJoint_style=rectangular&FingerJoint_surroundingspaces=2.0&FingerJoint_edge_width=1.0&FingerJoint_extra_length=0.0&FingerJoint_finger=2.0&FingerJoint_play=0.0&FingerJoint_space=2.0&FingerJoint_width=1.0&x=91&y=54&h=40&outside=0&thickness=3.0&format=svg&tabs=0.0&debug=0&labels=0&reference=100&inner_corners=loop&burn=0.1
-->
  <title
     id="title2">ClosedBox</title>
  <metadata
     id="metadata4">
    <rdf:RDF>
      <cc:Work>
        <dc:title>Box - ClosedBox</dc:title>
        <dc:date>2022-06-30 14:08:11</dc:date>
        <dc:source>http://festi.info/ClosedBox?FingerJoint_angle=90.0&amp;FingerJoint_style=rectangular&amp;FingerJoint_surroundingspaces=2.0&amp;FingerJoint_edge_width=1.0&amp;FingerJoint_extra_length=0.0&amp;FingerJoint_finger=2.0&amp;FingerJoint_play=0.0&amp;FingerJoint_space=2.0&amp;FingerJoint_width=1.0&amp;x=91&amp;y=54&amp;h=40&amp;outside=0&amp;thickness=3.0&amp;format=svg&amp;tabs=0.0&amp;debug=0&amp;labels=0&amp;reference=100&amp;inner_corners=loop&amp;burn=0.1&amp;render=1</dc:source>
        <dc:description>Fully closed box

This box is more of a building block than a finished item.
Use a vector graphics program (like Inkscape) to add holes or adjust the base
plate.

See BasedBox for variant with a base.

Created with Boxes.py (https://festi.info/boxes.py)
Command line: boxes ClosedBox --FingerJoint_angle=90.0 --FingerJoint_style=rectangular --FingerJoint_surroundingspaces=2.0 --FingerJoint_edge_width=1.0 --FingerJoint_extra_length=0.0 --FingerJoint_finger=2.0 --FingerJoint_play=0.0 --FingerJoint_space=2.0 --FingerJoint_width=1.0 --x=91 --y=54 --h=40 --outside=0 --thickness=3.0 --format=svg --tabs=0.0 --debug=0 --labels=0 --reference=100 --inner_corners=loop --burn=0.1
Url: http://festi.info/ClosedBox?FingerJoint_angle=90.0&amp;FingerJoint_style=rectangular&amp;FingerJoint_surroundingspaces=2.0&amp;FingerJoint_edge_width=1.0&amp;FingerJoint_extra_length=0.0&amp;FingerJoint_finger=2.0&amp;FingerJoint_play=0.0&amp;FingerJoint_space=2.0&amp;FingerJoint_width=1.0&amp;x=91&amp;y=54&amp;h=40&amp;outside=0&amp;thickness=3.0&amp;format=svg&amp;tabs=0.0&amp;debug=0&amp;labels=0&amp;reference=100&amp;inner_corners=loop&amp;burn=0.1&amp;render=1
SettingsUrl: http://festi.info/ClosedBox?FingerJoint_angle=90.0&amp;FingerJoint_style=rectangular&amp;FingerJoint_surroundingspaces=2.0&amp;FingerJoint_edge_width=1.0&amp;FingerJoint_extra_length=0.0&amp;FingerJoint_finger=2.0&amp;FingerJoint_play=0.0&amp;FingerJoint_space=2.0&amp;FingerJoint_width=1.0&amp;x=91&amp;y=54&amp;h=40&amp;outside=0&amp;thickness=3.0&amp;format=svg&amp;tabs=0.0&amp;debug=0&amp;labels=0&amp;reference=100&amp;inner_corners=loop&amp;burn=0.1
</dc:description>
      </cc:Work>
    </rdf:RDF>
  </metadata>
  <path
     d="m 13.4,165.6 h 6.5 c 0.055,0 0.1,-0.045 0.1,-0.1 v -2.9 c 0,-0.1 -0.1,0 0,0 h 5.8 c 0.1,0 0,-0.1 0,0 v 2.9 c 0,0.055 0.045,0.1 0.1,0.1 h 6 c 0.055,0 0.1,-0.045 0.1,-0.1 v -2.9 c 0,-0.1 -0.1,0 0,0 h 5.8 c 0.1,0 0,-0.1 0,0 v 2.9 c 0,0.055 0.045,0.1 0.1,0.1 h 6 c 0.055,0 0.1,-0.045 0.1,-0.1 v -2.9 c 0,-0.1 -0.1,0 0,0 h 5.8 c 0.1,0 0,-0.1 0,0 v 2.9 c 0,0.055 0.045,0.1 0.1,0.1 h 6 c 0.055,0 0.1,-0.045 0.1,-0.1 v -2.9 c 0,-0.1 -0.1,0 0,0 h 5.8 c 0.1,0 0,-0.1 0,0 v 2.9 c 0,0.055 0.045,0.1 0.1,0.1 h 6 c 0.055,0 0.1,-0.045 0.1,-0.1 v -2.9 c 0,-0.1 -0.1,0 0,0 h 5.8 c 0.1,0 0,-0.1 0,0 v 2.9 c 0,0.055 0.045,0.1 0.1,0.1 h 6 c 0.055,0 0.1,-0.045 0.1,-0.1 v -2.9 c 0,-0.1 -0.1,0 0,0 h 5.8 c 0.1,0 0,-0.1 0,0 v 2.9 c 0,0.055 0.045,0.1 0.1,0.1 h 6 c 0.055,0 0.1,-0.045 0.1,-0.1 v -2.9 c 0,-0.1 -0.1,0 0,0 h 5.8 c 0.1,0 0,-0.1 0,0 v 2.9 c 0,0.055 0.045,0.1 0.1,0.1 h 6.5 3 c 0.055,0 0.1,-0.045 0.1,-0.1 v -3 -11 c 0,-0.055 -0.045,-0.1 -0.1,-0.1 h -2.9 c -0.1,0 0,0.1 0,0 v -5.8 c 0,-0.1 -0.1,0 0,0 h 2.9 c 0.055,0 0.1,-0.045 0.1,-0.1 v -6 c 0,-0.055 -0.045,-0.1 -0.1,-0.1 h -2.9 c -0.1,0 0,0.1 0,0 v -5.8 c 0,-0.1 -0.1,0 0,0 h 2.9 c 0.055,0 0.1,-0.045 0.1,-0.1 v -11 -3 c 0,-0.055 -0.045,-0.1 -0.1,-0.1 h -3 -6.5 c -0.055,0 -0.1,0.045 -0.1,0.1 v 2.9 c 0,0.1 0.1,0 0,0 H 92 c -0.1,0 0,0.1 0,0 v -2.9 c 0,-0.055 -0.045,-0.1 -0.1,-0.1 h -6 c -0.055,0 -0.1,0.045 -0.1,0.1 v 2.9 c 0,0.1 0.1,0 0,0 H 80 c -0.1,0 0,0.1 0,0 v -2.9 c 0,-0.055 -0.045,-0.1 -0.1,-0.1 h -6 c -0.055,0 -0.1,0.045 -0.1,0.1 v 2.9 c 0,0.1 0.1,0 0,0 H 68 c -0.1,0 0,0.1 0,0 v -2.9 c 0,-0.055 -0.045,-0.1 -0.1,-0.1 h -6 c -0.055,0 -0.1,0.045 -0.1,0.1 v 2.9 c 0,0.1 0.1,0 0,0 H 56 c -0.1,0 0,0.1 0,0 v -2.9 c 0,-0.055 -0.045,-0.1 -0.1,-0.1 h -6 c -0.055,0 -0.1,0.045 -0.1,0.1 v 2.9 c 0,0.1 0.1,0 0,0 H 44 c -0.1,0 0,0.1 0,0 v -2.9 c 0,-0.055 -0.045,-0.1 -0.1,-0.1 h -6 c -0.055,0 -0.1,0.045 -0.1,0.1 v 2.9 c 0,0.1 0.1,0 0,0 H 32 c -0.1,0 0,0.1 0,0 v -2.9 c 0,-0.055 -0.045,-0.1 -0.1,-0.1 h -6 c -0.055,0 -0.1,0.045 -0.1,0.1 v 2.9 c 0,0.1 0.1,0 0,0 H 20 c -0.1,0 0,0.1 0,0 v -2.9 c 0,-0.055 -0.045,-0.1 -0.1,-0.1 h -6.5 -3 c -0.055,0 -0.1,0.045 -0.1,0.1 v 3 11 c 0,0.055 0.045,0.1 0.1,0.1 h 2.9 c 0.1,0 0,-0.1 0,0 v 5.8 c 0,0.1 0.1,0 0,0 h -2.9 c -0.055,0 -0.1,0.045 -0.1,0.1 v 6 c 0,0.055 0.045,0.1 0.1,0.1 h 2.9 c 0.1,0 0,-0.1 0,0 v 5.8 c 0,0.1 0.1,0 0,0 h -2.9 c -0.055,0 -0.1,0.045 -0.1,0.1 v 11 3 c 0,0.055 0.045,0.1 0.1,0.1 z"
     stroke="rgb(0,0,0)"
     stroke-width="0.2"
     id="path11"
     style="fill:none;stroke:#ff0000;stroke-linecap:round;stroke-linejoin:round" />
  <path
     d="m 112.1,165.6 h 6 c 0.055,0 0.1,-0.045 0.1,-0.1 v -2.9 c 0,-0.1 -0.1,0 0,0 h 5.8 c 0.1,0 0,-0.1 0,0 v 2.9 c 0,0.055 0.045,0.1 0.1,0.1 h 6 c 0.055,0 0.1,-0.045 0.1,-0.1 v -2.9 c 0,-0.1 -0.1,0 0,0 h 5.8 c 0.1,0 0,-0.1 0,0 v 2.9 c 0,0.055 0.045,0.1 0.1,0.1 h 6 c 0.055,0 0.1,-0.045 0.1,-0.1 v -2.9 c 0,-0.1 -0.1,0 0,0 h 5.8 c 0.1,0 0,-0.1 0,0 v 2.9 c 0,0.055 0.045,0.1 0.1,0.1 h 6 c 0.055,0 0.1,-0.045 0.1,-0.1 v -2.9 c 0,-0.1 -0.1,0 0,0 h 5.8 c 0.1,0 0,-0.1 0,0 v 2.9 c 0,0.055 0.045,0.1 0.1,0.1 h 6 c 0.055,0 0.1,-0.045 0.1,-0.1 v -3 -10.9 c 0,-0.1 -0.1,0 0,0 h 2.9 c 0.055,0 0.1,-0.045 0.1,-0.1 v -6 c 0,-0.055 -0.045,-0.1 -0.1,-0.1 h -2.9 c -0.1,0 0,0.1 0,0 v -5.8 c 0,-0.1 -0.1,0 0,0 h 2.9 c 0.055,0 0.1,-0.045 0.1,-0.1 v -6 c 0,-0.055 -0.045,-0.1 -0.1,-0.1 h -2.9 c -0.1,0 0,0.1 0,0 v -10.9 -3 c 0,-0.055 -0.045,-0.1 -0.1,-0.1 h -6 c -0.055,0 -0.1,0.045 -0.1,0.1 v 2.9 c 0,0.1 0.1,0 0,0 h -5.8 c -0.1,0 0,0.1 0,0 v -2.9 c 0,-0.055 -0.045,-0.1 -0.1,-0.1 h -6 c -0.055,0 -0.1,0.045 -0.1,0.1 v 2.9 c 0,0.1 0.1,0 0,0 h -5.8 c -0.1,0 0,0.1 0,0 v -2.9 c 0,-0.055 -0.045,-0.1 -0.1,-0.1 h -6 c -0.055,0 -0.1,0.045 -0.1,0.1 v 2.9 c 0,0.1 0.1,0 0,0 h -5.8 c -0.1,0 0,0.1 0,0 v -2.9 c 0,-0.055 -0.045,-0.1 -0.1,-0.1 h -6 c -0.055,0 -0.1,0.045 -0.1,0.1 v 2.9 c 0,0.1 0.1,0 0,0 h -5.8 c -0.1,0 0,0.1 0,0 v -2.9 c 0,-0.055 -0.045,-0.1 -0.1,-0.1 h -6 c -0.055,0 -0.1,0.045 -0.1,0.1 v 3 10.9 c 0,0.1 0.1,0 0,0 h -2.9 c -0.055,0 -0.1,0.045 -0.1,0.1 v 6 c 0,0.055 0.045,0.1 0.1,0.1 h 2.9 c 0.1,0 0,-0.1 0,0 v 5.8 c 0,0.1 0.1,0 0,0 h -2.9 c -0.055,0 -0.1,0.045 -0.1,0.1 v 6 c 0,0.055 0.045,0.1 0.1,0.1 h 2.9 c 0.1,0 0,-0.1 0,0 v 10.9 3 c 0,0.055 0.045,0.1 0.1,0.1 z"
     stroke="rgb(0,0,0)"
     stroke-width="0.2"
     id="path14"
     style="fill:none;stroke:#ff0000;stroke-linecap:round;stroke-linejoin:round" />
  <path
     d="m 112.1,117.9 h 6 c 0.055,0 0.1,-0.045 0.1,-0.1 v -2.9 c 0,-0.1 -0.1,0 0,0 h 5.8 c 0.1,0 0,-0.1 0,0 v 2.9 c 0,0.055 0.045,0.1 0.1,0.1 h 6 c 0.055,0 0.1,-0.045 0.1,-0.1 v -2.9 c 0,-0.1 -0.1,0 0,0 h 5.8 c 0.1,0 0,-0.1 0,0 v 2.9 c 0,0.055 0.045,0.1 0.1,0.1 h 6 c 0.055,0 0.1,-0.045 0.1,-0.1 v -2.9 c 0,-0.1 -0.1,0 0,0 h 5.8 c 0.1,0 0,-0.1 0,0 v 2.9 c 0,0.055 0.045,0.1 0.1,0.1 h 6 c 0.055,0 0.1,-0.045 0.1,-0.1 v -2.9 c 0,-0.1 -0.1,0 0,0 h 5.8 c 0.1,0 0,-0.1 0,0 v 2.9 c 0,0.055 0.045,0.1 0.1,0.1 h 6 c 0.055,0 0.1,-0.045 0.1,-0.1 v -3 -10.9 c 0,-0.1 -0.1,0 0,0 h 2.9 c 0.055,0 0.1,-0.045 0.1,-0.1 v -6 c 0,-0.055 -0.045,-0.1 -0.1,-0.1 h -2.9 c -0.1,0 0,0.1 0,0 v -5.8 c 0,-0.1 -0.1,0 0,0 h 2.9 c 0.055,0 0.1,-0.045 0.1,-0.1 v -6 c 0,-0.055 -0.045,-0.1 -0.1,-0.1 h -2.9 c -0.1,0 0,0.1 0,0 v -10.9 -3 c 0,-0.055 -0.045,-0.1 -0.1,-0.1 h -6 c -0.055,0 -0.1,0.045 -0.1,0.1 v 2.9 c 0,0.1 0.1,0 0,0 h -5.8 c -0.1,0 0,0.1 0,0 v -2.9 c 0,-0.055 -0.045,-0.1 -0.1,-0.1 h -6 c -0.055,0 -0.1,0.045 -0.1,0.1 v 2.9 c 0,0.1 0.1,0 0,0 h -5.8 c -0.1,0 0,0.1 0,0 v -2.9 c 0,-0.055 -0.045,-0.1 -0.1,-0.1 h -6 c -0.055,0 -0.1,0.045 -0.1,0.1 v 2.9 c 0,0.1 0.1,0 0,0 h -5.8 c -0.1,0 0,0.1 0,0 v -2.9 c 0,-0.055 -0.045,-0.1 -0.1,-0.1 h -6 c -0.055,0 -0.1,0.045 -0.1,0.1 v 2.9 c 0,0.1 0.1,0 0,0 h -5.8 c -0.1,0 0,0.1 0,0 v -2.9 c 0,-0.055 -0.045,-0.1 -0.1,-0.1 h -6 c -0.055,0 -0.1,0.045 -0.1,0.1 v 3 10.9 c 0,0.1 0.1,0 0,0 h -2.9 c -0.055,0 -0.1,0.045 -0.1,0.1 v 6 c 0,0.055 0.045,0.1 0.1,0.1 h 2.9 c 0.1,0 0,-0.1 0,0 v 5.8 c 0,0.1 0.1,0 0,0 h -2.9 c -0.055,0 -0.1,0.045 -0.1,0.1 v 6 c 0,0.055 0.045,0.1 0.1,0.1 h 2.9 c 0.1,0 0,-0.1 0,0 v 10.9 3 c 0,0.055 0.045,0.1 0.1,0.1 z"
     stroke="rgb(0,0,0)"
     stroke-width="0.2"
     id="path17"
     style="fill:none;stroke:#ff0000;stroke-linecap:round;stroke-linejoin:round" />
  <path
     d="m 13.4,117.9 h 6.5 c 0.055,0 0.1,-0.045 0.1,-0.1 v -2.9 c 0,-0.1 -0.1,0 0,0 h 5.8 c 0.1,0 0,-0.1 0,0 v 2.9 c 0,0.055 0.045,0.1 0.1,0.1 h 6 c 0.055,0 0.1,-0.045 0.1,-0.1 v -2.9 c 0,-0.1 -0.1,0 0,0 h 5.8 c 0.1,0 0,-0.1 0,0 v 2.9 c 0,0.055 0.045,0.1 0.1,0.1 h 6 c 0.055,0 0.1,-0.045 0.1,-0.1 v -2.9 c 0,-0.1 -0.1,0 0,0 h 5.8 c 0.1,0 0,-0.1 0,0 v 2.9 c 0,0.055 0.045,0.1 0.1,0.1 h 6 c 0.055,0 0.1,-0.045 0.1,-0.1 v -2.9 c 0,-0.1 -0.1,0 0,0 h 5.8 c 0.1,0 0,-0.1 0,0 v 2.9 c 0,0.055 0.045,0.1 0.1,0.1 h 6 c 0.055,0 0.1,-0.045 0.1,-0.1 v -2.9 c 0,-0.1 -0.1,0 0,0 h 5.8 c 0.1,0 0,-0.1 0,0 v 2.9 c 0,0.055 0.045,0.1 0.1,0.1 h 6 c 0.055,0 0.1,-0.045 0.1,-0.1 v -2.9 c 0,-0.1 -0.1,0 0,0 h 5.8 c 0.1,0 0,-0.1 0,0 v 2.9 c 0,0.055 0.045,0.1 0.1,0.1 h 6 c 0.055,0 0.1,-0.045 0.1,-0.1 v -2.9 c 0,-0.1 -0.1,0 0,0 h 5.8 c 0.1,0 0,-0.1 0,0 v 2.9 c 0,0.055 0.045,0.1 0.1,0.1 h 6.5 3 c 0.055,0 0.1,-0.045 0.1,-0.1 v -3 -11 c 0,-0.055 -0.045,-0.1 -0.1,-0.1 h -2.9 c -0.1,0 0,0.1 0,0 v -5.8 c 0,-0.1 -0.1,0 0,0 h 2.9 c 0.055,0 0.1,-0.045 0.1,-0.1 v -6 c 0,-0.055 -0.045,-0.1 -0.1,-0.1 h -2.9 c -0.1,0 0,0.1 0,0 v -5.8 c 0,-0.1 -0.1,0 0,0 h 2.9 c 0.055,0 0.1,-0.045 0.1,-0.1 v -11 -3 c 0,-0.055 -0.045,-0.1 -0.1,-0.1 h -3 -6.5 c -0.055,0 -0.1,0.045 -0.1,0.1 v 2.9 c 0,0.1 0.1,0 0,0 H 92 c -0.1,0 0,0.1 0,0 v -2.9 c 0,-0.055 -0.045,-0.1 -0.1,-0.1 h -6 c -0.055,0 -0.1,0.045 -0.1,0.1 v 2.9 c 0,0.1 0.1,0 0,0 H 80 c -0.1,0 0,0.1 0,0 v -2.9 c 0,-0.055 -0.045,-0.1 -0.1,-0.1 h -6 c -0.055,0 -0.1,0.045 -0.1,0.1 v 2.9 c 0,0.1 0.1,0 0,0 H 68 c -0.1,0 0,0.1 0,0 v -2.9 c 0,-0.055 -0.045,-0.1 -0.1,-0.1 h -6 c -0.055,0 -0.1,0.045 -0.1,0.1 v 2.9 c 0,0.1 0.1,0 0,0 H 56 c -0.1,0 0,0.1 0,0 v -2.9 c 0,-0.055 -0.045,-0.1 -0.1,-0.1 h -6 c -0.055,0 -0.1,0.045 -0.1,0.1 v 2.9 c 0,0.1 0.1,0 0,0 H 44 c -0.1,0 0,0.1 0,0 v -2.9 c 0,-0.055 -0.045,-0.1 -0.1,-0.1 h -6 c -0.055,0 -0.1,0.045 -0.1,0.1 v 2.9 c 0,0.1 0.1,0 0,0 H 32 c -0.1,0 0,0.1 0,0 v -2.9 c 0,-0.055 -0.045,-0.1 -0.1,-0.1 h -6 c -0.055,0 -0.1,0.045 -0.1,0.1 v 2.9 c 0,0.1 0.1,0 0,0 H 20 c -0.1,0 0,0.1 0,0 v -2.9 c 0,-0.055 -0.045,-0.1 -0.1,-0.1 h -6.5 -3 c -0.055,0 -0.1,0.045 -0.1,0.1 v 3 11 c 0,0.055 0.045,0.1 0.1,0.1 h 2.9 c 0.1,0 0,-0.1 0,0 v 5.8 c 0,0.1 0.1,0 0,0 h -2.9 c -0.055,0 -0.1,0.045 -0.1,0.1 v 6 c 0,0.055 0.045,0.1 0.1,0.1 h 2.9 c 0.1,0 0,-0.1 0,0 v 5.8 c 0,0.1 0.1,0 0,0 h -2.9 c -0.055,0 -0.1,0.045 -0.1,0.1 v 11 3 c 0,0.055 0.045,0.1 0.1,0.1 z"
     stroke="rgb(0,0,0)"
     stroke-width="0.2"
     id="path20"
     style="fill:none;stroke:#ff0000;stroke-linecap:round;stroke-linejoin:round" />
  <path
     d="m 13.4,67.2 h 6.4 c 0.1,0 0,-0.1 0,0 v 2.9 c 0,0.055 0.045,0.1 0.1,0.1 h 6 c 0.055,0 0.1,-0.045 0.1,-0.1 v -2.9 c 0,-0.1 -0.1,0 0,0 h 5.8 c 0.1,0 0,-0.1 0,0 v 2.9 c 0,0.055 0.045,0.1 0.1,0.1 h 6 c 0.055,0 0.1,-0.045 0.1,-0.1 v -2.9 c 0,-0.1 -0.1,0 0,0 h 5.8 c 0.1,0 0,-0.1 0,0 v 2.9 c 0,0.055 0.045,0.1 0.1,0.1 h 6 c 0.055,0 0.1,-0.045 0.1,-0.1 v -2.9 c 0,-0.1 -0.1,0 0,0 h 5.8 c 0.1,0 0,-0.1 0,0 v 2.9 c 0,0.055 0.045,0.1 0.1,0.1 h 6 c 0.055,0 0.1,-0.045 0.1,-0.1 v -2.9 c 0,-0.1 -0.1,0 0,0 h 5.8 c 0.1,0 0,-0.1 0,0 v 2.9 c 0,0.055 0.045,0.1 0.1,0.1 h 6 c 0.055,0 0.1,-0.045 0.1,-0.1 v -2.9 c 0,-0.1 -0.1,0 0,0 h 5.8 c 0.1,0 0,-0.1 0,0 v 2.9 c 0,0.055 0.045,0.1 0.1,0.1 h 6 c 0.055,0 0.1,-0.045 0.1,-0.1 v -2.9 c 0,-0.1 -0.1,0 0,0 h 5.8 c 0.1,0 0,-0.1 0,0 v 2.9 c 0,0.055 0.045,0.1 0.1,0.1 h 6 c 0.055,0 0.1,-0.045 0.1,-0.1 v -2.9 c 0,-0.1 -0.1,0 0,0 h 6.4 c 0.055,0 0.1,-0.045 0.1,-0.1 v -5.9 c 0,-0.1 -0.1,0 0,0 h 2.9 c 0.055,0 0.1,-0.045 0.1,-0.1 v -6 c 0,-0.055 -0.045,-0.1 -0.1,-0.1 h -2.9 c -0.1,0 0,0.1 0,0 v -5.8 c 0,-0.1 -0.1,0 0,0 h 2.9 c 0.055,0 0.1,-0.045 0.1,-0.1 v -6 c 0,-0.055 -0.045,-0.1 -0.1,-0.1 h -2.9 c -0.1,0 0,0.1 0,0 v -5.8 c 0,-0.1 -0.1,0 0,0 h 2.9 c 0.055,0 0.1,-0.045 0.1,-0.1 v -6 c 0,-0.055 -0.045,-0.1 -0.1,-0.1 h -2.9 c -0.1,0 0,0.1 0,0 v -5.8 c 0,-0.1 -0.1,0 0,0 h 2.9 c 0.055,0 0.1,-0.045 0.1,-0.1 v -6 c 0,-0.055 -0.045,-0.1 -0.1,-0.1 h -2.9 c -0.1,0 0,0.1 0,0 v -5.9 c 0,-0.055 -0.045,-0.1 -0.1,-0.1 H 98 c -0.1,0 0,0.1 0,0 V 10.1 C 98,10.045 97.955,10 97.9,10 h -6 c -0.055,0 -0.1,0.045 -0.1,0.1 V 13 c 0,0.1 0.1,0 0,0 H 86 c -0.1,0 0,0.1 0,0 V 10.1 C 86,10.045 85.955,10 85.9,10 h -6 c -0.055,0 -0.1,0.045 -0.1,0.1 V 13 c 0,0.1 0.1,0 0,0 H 74 c -0.1,0 0,0.1 0,0 V 10.1 C 74,10.045 73.955,10 73.9,10 h -6 c -0.055,0 -0.1,0.045 -0.1,0.1 V 13 c 0,0.1 0.1,0 0,0 H 62 c -0.1,0 0,0.1 0,0 V 10.1 C 62,10.045 61.955,10 61.9,10 h -6 c -0.055,0 -0.1,0.045 -0.1,0.1 V 13 c 0,0.1 0.1,0 0,0 H 50 c -0.1,0 0,0.1 0,0 V 10.1 C 50,10.045 49.955,10 49.9,10 h -6 c -0.055,0 -0.1,0.045 -0.1,0.1 V 13 c 0,0.1 0.1,0 0,0 H 38 c -0.1,0 0,0.1 0,0 V 10.1 C 38,10.045 37.955,10 37.9,10 h -6 c -0.055,0 -0.1,0.045 -0.1,0.1 V 13 c 0,0.1 0.1,0 0,0 H 26 c -0.1,0 0,0.1 0,0 V 10.1 C 26,10.045 25.955,10 25.9,10 h -6 c -0.055,0 -0.1,0.045 -0.1,0.1 V 13 c 0,0.1 0.1,0 0,0 h -6.4 c -0.055,0 -0.1,0.045 -0.1,0.1 V 19 c 0,0.1 0.1,0 0,0 h -2.9 c -0.055,0 -0.1,0.045 -0.1,0.1 v 6 c 0,0.055 0.045,0.1 0.1,0.1 h 2.9 c 0.1,0 0,-0.1 0,0 V 31 c 0,0.1 0.1,0 0,0 h -2.9 c -0.055,0 -0.1,0.045 -0.1,0.1 v 6 c 0,0.055 0.045,0.1 0.1,0.1 h 2.9 c 0.1,0 0,-0.1 0,0 V 43 c 0,0.1 0.1,0 0,0 h -2.9 c -0.055,0 -0.1,0.045 -0.1,0.1 v 6 c 0,0.055 0.045,0.1 0.1,0.1 h 2.9 c 0.1,0 0,-0.1 0,0 V 55 c 0,0.1 0.1,0 0,0 h -2.9 c -0.055,0 -0.1,0.045 -0.1,0.1 v 6 c 0,0.055 0.045,0.1 0.1,0.1 h 2.9 c 0.1,0 0,-0.1 0,0 v 5.9 c 0,0.055 0.045,0.1 0.1,0.1 z"
     stroke="rgb(0,0,0)"
     stroke-width="0.2"
     id="path23"
     style="fill:none;stroke:#ff0000;stroke-linecap:round;stroke-linejoin:round" />
  <path
     d="m 112.1,67.2 h 6.4 c 0.1,0 0,-0.1 0,0 v 2.9 c 0,0.055 0.045,0.1 0.1,0.1 h 6 c 0.055,0 0.1,-0.045 0.1,-0.1 v -2.9 c 0,-0.1 -0.1,0 0,0 h 5.8 c 0.1,0 0,-0.1 0,0 v 2.9 c 0,0.055 0.045,0.1 0.1,0.1 h 6 c 0.055,0 0.1,-0.045 0.1,-0.1 v -2.9 c 0,-0.1 -0.1,0 0,0 h 5.8 c 0.1,0 0,-0.1 0,0 v 2.9 c 0,0.055 0.045,0.1 0.1,0.1 h 6 c 0.055,0 0.1,-0.045 0.1,-0.1 v -2.9 c 0,-0.1 -0.1,0 0,0 h 5.8 c 0.1,0 0,-0.1 0,0 v 2.9 c 0,0.055 0.045,0.1 0.1,0.1 h 6 c 0.055,0 0.1,-0.045 0.1,-0.1 v -2.9 c 0,-0.1 -0.1,0 0,0 h 5.8 c 0.1,0 0,-0.1 0,0 v 2.9 c 0,0.055 0.045,0.1 0.1,0.1 h 6 c 0.055,0 0.1,-0.045 0.1,-0.1 v -2.9 c 0,-0.1 -0.1,0 0,0 h 5.8 c 0.1,0 0,-0.1 0,0 v 2.9 c 0,0.055 0.045,0.1 0.1,0.1 h 6 c 0.055,0 0.1,-0.045 0.1,-0.1 v -2.9 c 0,-0.1 -0.1,0 0,0 h 5.8 c 0.1,0 0,-0.1 0,0 v 2.9 c 0,0.055 0.045,0.1 0.1,0.1 h 6 c 0.055,0 0.1,-0.045 0.1,-0.1 v -2.9 c 0,-0.1 -0.1,0 0,0 h 6.4 c 0.055,0 0.1,-0.045 0.1,-0.1 v -5.9 c 0,-0.1 -0.1,0 0,0 h 2.9 c 0.055,0 0.1,-0.045 0.1,-0.1 v -6 c 0,-0.055 -0.045,-0.1 -0.1,-0.1 h -2.9 c -0.1,0 0,0.1 0,0 v -5.8 c 0,-0.1 -0.1,0 0,0 h 2.9 c 0.055,0 0.1,-0.045 0.1,-0.1 v -6 c 0,-0.055 -0.045,-0.1 -0.1,-0.1 h -2.9 c -0.1,0 0,0.1 0,0 v -5.8 c 0,-0.1 -0.1,0 0,0 h 2.9 c 0.055,0 0.1,-0.045 0.1,-0.1 v -6 c 0,-0.055 -0.045,-0.1 -0.1,-0.1 h -2.9 c -0.1,0 0,0.1 0,0 v -5.8 c 0,-0.1 -0.1,0 0,0 h 2.9 c 0.055,0 0.1,-0.045 0.1,-0.1 v -6 c 0,-0.055 -0.045,-0.1 -0.1,-0.1 h -2.9 c -0.1,0 0,0.1 0,0 v -5.9 c 0,-0.055 -0.045,-0.1 -0.1,-0.1 h -6.4 c -0.1,0 0,0.1 0,0 v -2.9 c 0,-0.055 -0.045,-0.1 -0.1,-0.1 h -6 c -0.055,0 -0.1,0.045 -0.1,0.1 V 13 c 0,0.1 0.1,0 0,0 h -5.8 c -0.1,0 0,0.1 0,0 v -2.9 c 0,-0.055 -0.045,-0.1 -0.1,-0.1 h -6 c -0.055,0 -0.1,0.045 -0.1,0.1 V 13 c 0,0.1 0.1,0 0,0 h -5.8 c -0.1,0 0,0.1 0,0 v -2.9 c 0,-0.055 -0.045,-0.1 -0.1,-0.1 h -6 c -0.055,0 -0.1,0.045 -0.1,0.1 V 13 c 0,0.1 0.1,0 0,0 h -5.8 c -0.1,0 0,0.1 0,0 v -2.9 c 0,-0.055 -0.045,-0.1 -0.1,-0.1 h -6 c -0.055,0 -0.1,0.045 -0.1,0.1 V 13 c 0,0.1 0.1,0 0,0 h -5.8 c -0.1,0 0,0.1 0,0 v -2.9 c 0,-0.055 -0.045,-0.1 -0.1,-0.1 h -6 c -0.055,0 -0.1,0.045 -0.1,0.1 V 13 c 0,0.1 0.1,0 0,0 h -5.8 c -0.1,0 0,0.1 0,0 v -2.9 c 0,-0.055 -0.045,-0.1 -0.1,-0.1 h -6 c -0.055,0 -0.1,0.045 -0.1,0.1 V 13 c 0,0.1 0.1,0 0,0 h -5.8 c -0.1,0 0,0.1 0,0 v -2.9 c 0,-0.055 -0.045,-0.1 -0.1,-0.1 h -6 c -0.055,0 -0.1,0.045 -0.1,0.1 V 13 c 0,0.1 0.1,0 0,0 h -6.4 c -0.055,0 -0.1,0.045 -0.1,0.1 V 19 c 0,0.1 0.1,0 0,0 h -2.9 c -0.055,0 -0.1,0.045 -0.1,0.1 v 6 c 0,0.055 0.045,0.1 0.1,0.1 h 2.9 c 0.1,0 0,-0.1 0,0 V 31 c 0,0.1 0.1,0 0,0 h -2.9 c -0.055,0 -0.1,0.045 -0.1,0.1 v 6 c 0,0.055 0.045,0.1 0.1,0.1 h 2.9 c 0.1,0 0,-0.1 0,0 V 43 c 0,0.1 0.1,0 0,0 h -2.9 c -0.055,0 -0.1,0.045 -0.1,0.1 v 6 c 0,0.055 0.045,0.1 0.1,0.1 h 2.9 c 0.1,0 0,-0.1 0,0 V 55 c 0,0.1 0.1,0 0,0 h -2.9 c -0.055,0 -0.1,0.045 -0.1,0.1 v 6 c 0,0.055 0.045,0.1 0.1,0.1 h 2.9 c 0.1,0 0,-0.1 0,0 v 5.9 c 0,0.055 0.045,0.1 0.1,0.1 z"
     stroke="rgb(0,0,0)"
     stroke-width="0.2"
     id="path26"
     style="fill:none;stroke:#ff0000;stroke-linecap:round;stroke-linejoin:round" />
  <path
     id="rect245"
     style="fill:none;stroke:#ff0000;stroke-width:0.21643"
     d="m 29.432279,36.501577 h 70.103437 c 0.465394,0 0.840054,0.462582 0.840054,1.037178 v 23.604854 c 0,0.574596 -0.37466,1.037178 -0.840054,1.037178 H 29.432279 c -0.465395,0 -0.840063,-0.462582 -0.840063,-1.037178 V 37.538755 c 0,-0.574596 0.374668,-1.037178 0.840063,-1.037178 z" />
  <path
     id="rect1703"
     style="fill:none;stroke:#ff0000;stroke-width:0.217411"
     d="m 122.59753,99.461919 h 9.75693 c 0.89351,0 1.61283,0.852301 1.61283,1.910981 v 11.56063 c 0,1.05867 -0.71932,1.91097 -1.61283,1.91097 h -9.75693 c -0.8935,0 -1.61282,-0.8523 -1.61282,-1.91097 V 101.3729 c 0,-1.05868 0.71932,-1.910981 1.61282,-1.910981 z" />
  <path
     id="path1778"
     style="fill:none;stroke:#ff0000;stroke-width:0.2"
     d="m 132.53377,86.941833 a 5.1228104,5.1228104 0 0 1 -5.12281,5.122811 5.1228104,5.1228104 0 0 1 -5.12281,-5.122811 5.1228104,5.1228104 0 0 1 5.12281,-5.12281 5.1228104,5.1228104 0 0 1 5.12281,5.12281 z" />
  <path
     d="m 20.0215,18.977483 v 1.79989 h 0.378272 q 0.47904,0 0.700732,-0.217041 0.223242,-0.217041 0.223242,-0.68523 0,-0.465088 -0.223242,-0.680578 -0.221692,-0.217041 -0.700732,-0.217041 z m -0.313159,-0.257349 h 0.643372 q 0.672827,0 0.987536,0.280603 0.31471,0.279053 0.31471,0.874365 0,0.598413 -0.31626,0.879016 -0.31626,0.280603 -0.985986,0.280603 h -0.643372 z"
     id="path1950"
     style="font-size:3.175px;fill:none;stroke:#000000;stroke-width:0.2" />
  <path
     d="m 22.140751,19.298393 h 0.285254 v 1.736328 h -0.285254 z m 0,-0.675927 h 0.285254 v 0.361218 h -0.285254 z"
     id="path1952"
     style="font-size:3.175px;fill:none;stroke:#000000;stroke-width:0.2" />
  <path
     d="m 24.165433,20.146404 q 0,-0.310059 -0.128674,-0.480591 -0.127124,-0.170533 -0.358118,-0.170533 -0.229443,0 -0.358117,0.170533 -0.127124,0.170532 -0.127124,0.480591 0,0.308508 0.127124,0.47904 0.128674,0.170532 0.358117,0.170532 0.230994,0 0.358118,-0.170532 0.128674,-0.170532 0.128674,-0.47904 z m 0.285254,0.672827 q 0,0.443383 -0.196887,0.658874 -0.196887,0.217041 -0.603064,0.217041 -0.150378,0 -0.283703,-0.02325 -0.133326,-0.0217 -0.258899,-0.06821 v -0.277503 q 0.125573,0.06821 0.248046,0.100769 0.122474,0.03256 0.249598,0.03256 0.280603,0 0.420129,-0.147278 0.139526,-0.145728 0.139526,-0.441834 v -0.141076 q -0.08837,0.153479 -0.226342,0.229443 -0.137976,0.07596 -0.330213,0.07596 -0.31936,0 -0.514697,-0.243396 -0.195337,-0.243396 -0.195337,-0.644921 0,-0.403077 0.195337,-0.646473 0.195337,-0.243396 0.514697,-0.243396 0.192237,0 0.330213,0.07597 0.137976,0.07596 0.226342,0.229443 v -0.26355 h 0.285254 z"
     id="path1954"
     style="font-size:3.175px;fill:none;stroke:#000000;stroke-width:0.2" />
  <path
     d="m 25.038248,19.298393 h 0.285254 v 1.736328 h -0.285254 z m 0,-0.675927 h 0.285254 v 0.361218 h -0.285254 z"
     id="path1956"
     style="font-size:3.175px;fill:none;stroke:#000000;stroke-width:0.2" />
  <path
     d="m 26.202518,18.8054 v 0.492993 h 0.587561 v 0.221692 h -0.587561 v 0.942578 q 0,0.21239 0.05736,0.272852 0.05891,0.06046 0.237195,0.06046 h 0.293005 v 0.238745 h -0.293005 q -0.330212,0 -0.455786,-0.122473 -0.125574,-0.124023 -0.125574,-0.449585 v -0.942578 h -0.209289 v -0.221692 h 0.209289 V 18.8054 Z"
     id="path1958"
     style="font-size:3.175px;fill:none;stroke:#000000;stroke-width:0.2" />
  <path
     d="m 27.95435,20.161906 q -0.345716,0 -0.479041,0.07906 -0.133325,0.07907 -0.133325,0.269751 0,0.151929 0.09922,0.241846 0.100769,0.08837 0.272851,0.08837 0.237195,0 0.379822,-0.167432 0.144177,-0.168982 0.144177,-0.448035 v -0.06356 z m 0.568957,-0.117822 v 0.990637 h -0.285254 v -0.263549 q -0.09767,0.158129 -0.243396,0.234094 -0.145727,0.07441 -0.356567,0.07441 -0.26665,0 -0.42478,-0.148828 -0.15658,-0.150379 -0.15658,-0.401526 0,-0.293005 0.195337,-0.441834 0.196887,-0.148828 0.586011,-0.148828 h 0.399975 v -0.02791 q 0,-0.196887 -0.130224,-0.303857 -0.128675,-0.108521 -0.362769,-0.108521 -0.148828,0 -0.289905,0.03566 -0.141076,0.03566 -0.271301,0.10697 v -0.26355 q 0.15658,-0.06046 0.303858,-0.08992 0.147277,-0.03101 0.286804,-0.03101 0.376721,0 0.562756,0.195337 0.186035,0.195337 0.186035,0.592212 z"
     id="path1960"
     style="font-size:3.175px;fill:none;stroke:#000000;stroke-width:0.2" />
  <path
     d="m 29.110868,18.622466 h 0.285254 v 2.412255 h -0.285254 z"
     id="path1962"
     style="font-size:3.175px;fill:none;stroke:#000000;stroke-width:0.2" />
  <path
     d="m 31.014628,18.720134 h 0.466638 l 0.590662,1.575098 0.593762,-1.575098 h 0.466638 v 2.314587 H 32.82692 v -2.032434 l -0.596862,1.5875 h -0.31471 l -0.596863,-1.5875 v 2.032434 h -0.303857 z"
     id="path1964"
     style="font-size:3.175px;fill:none;stroke:#000000;stroke-width:0.2" />
  <path
     d="m 34.530692,20.161906 q -0.345715,0 -0.47904,0.07906 -0.133325,0.07907 -0.133325,0.269751 0,0.151929 0.09922,0.241846 0.100769,0.08837 0.272852,0.08837 0.237195,0 0.379822,-0.167432 0.144177,-0.168982 0.144177,-0.448035 v -0.06356 z m 0.568958,-0.117822 v 0.990637 h -0.285254 v -0.263549 q -0.09767,0.158129 -0.243396,0.234094 -0.145728,0.07441 -0.356567,0.07441 -0.266651,0 -0.424781,-0.148828 -0.156579,-0.150379 -0.156579,-0.401526 0,-0.293005 0.195337,-0.441834 0.196887,-0.148828 0.58601,-0.148828 h 0.399976 v -0.02791 q 0,-0.196887 -0.130225,-0.303857 -0.128674,-0.108521 -0.362768,-0.108521 -0.148828,0 -0.289905,0.03566 -0.141077,0.03566 -0.271301,0.10697 v -0.26355 q 0.156579,-0.06046 0.303857,-0.08992 0.147278,-0.03101 0.286804,-0.03101 0.376721,0 0.562757,0.195337 0.186035,0.195337 0.186035,0.592212 z"
     id="path1966"
     style="font-size:3.175px;fill:none;stroke:#000000;stroke-width:0.2" />
  <path
     d="m 37.130534,19.986723 v 1.047998 H 36.84528 v -1.038696 q 0,-0.246496 -0.09612,-0.36897 -0.09612,-0.122473 -0.288355,-0.122473 -0.230994,0 -0.364319,0.147278 -0.133325,0.147278 -0.133325,0.401526 v 0.981335 h -0.286804 v -1.736328 h 0.286804 v 0.269751 q 0.102319,-0.156579 0.240295,-0.234094 0.139527,-0.07752 0.320911,-0.07752 0.299207,0 0.452686,0.186036 0.153479,0.184484 0.153479,0.544152 z"
     id="path1968"
     style="font-size:3.175px;fill:none;stroke:#000000;stroke-width:0.2" />
  <path
     d="m 37.670035,20.349492 v -1.051099 h 0.285254 v 1.040247 q 0,0.246496 0.09612,0.37052 0.09612,0.122473 0.288354,0.122473 0.230994,0 0.364319,-0.147278 0.134876,-0.147278 0.134876,-0.401526 v -0.984436 h 0.285254 v 1.736328 h -0.285254 v -0.26665 q -0.10387,0.15813 -0.241846,0.235645 -0.136426,0.07596 -0.31781,0.07596 -0.299207,0 -0.454236,-0.186035 -0.155029,-0.186035 -0.155029,-0.544153 z m 0.717785,-1.092957 z"
     id="path1970"
     style="font-size:3.175px;fill:none;stroke:#000000;stroke-width:0.2" />
  <path
     d="m 40.590788,18.622466 v 0.237194 h -0.272852 q -0.153479,0 -0.21394,0.06201 -0.05891,0.06201 -0.05891,0.223242 v 0.153479 h 0.469739 v 0.221692 h -0.469739 v 1.514636 H 39.758282 V 19.520083 H 39.48543 v -0.221692 h 0.272852 V 19.17747 q 0,-0.289904 0.134875,-0.421679 0.134876,-0.133325 0.427881,-0.133325 z"
     id="path1972"
     style="font-size:3.175px;fill:none;stroke:#000000;stroke-width:0.2" />
  <path
     d="m 41.618632,20.161906 q -0.345715,0 -0.47904,0.07906 -0.133325,0.07907 -0.133325,0.269751 0,0.151929 0.09922,0.241846 0.100769,0.08837 0.272851,0.08837 0.237195,0 0.379822,-0.167432 0.144177,-0.168982 0.144177,-0.448035 v -0.06356 z m 0.568958,-0.117822 v 0.990637 h -0.285254 v -0.263549 q -0.09767,0.158129 -0.243396,0.234094 -0.145727,0.07441 -0.356567,0.07441 -0.266651,0 -0.424781,-0.148828 -0.156579,-0.150379 -0.156579,-0.401526 0,-0.293005 0.195337,-0.441834 0.196887,-0.148828 0.586011,-0.148828 h 0.399975 v -0.02791 q 0,-0.196887 -0.130225,-0.303857 -0.128674,-0.108521 -0.362768,-0.108521 -0.148828,0 -0.289905,0.03566 -0.141076,0.03566 -0.271301,0.10697 v -0.26355 q 0.156579,-0.06046 0.303857,-0.08992 0.147278,-0.03101 0.286805,-0.03101 0.376721,0 0.562756,0.195337 0.186035,0.195337 0.186035,0.592212 z"
     id="path1974"
     style="font-size:3.175px;fill:none;stroke:#000000;stroke-width:0.2" />
  <path
     d="m 44.024687,19.365056 v 0.26665 q -0.120923,-0.06666 -0.243396,-0.09922 -0.120923,-0.03411 -0.244946,-0.03411 -0.277503,0 -0.430982,0.176733 -0.153479,0.175184 -0.153479,0.492994 0,0.31781 0.153479,0.494543 0.153479,0.175183 0.430982,0.175183 0.124023,0 0.244946,-0.03256 0.122473,-0.03411 0.243396,-0.100769 v 0.26355 q -0.119372,0.05581 -0.248047,0.08372 -0.127124,0.02791 -0.271301,0.02791 -0.392224,0 -0.623218,-0.246497 -0.230993,-0.246496 -0.230993,-0.665075 0,-0.424781 0.232544,-0.668177 0.234094,-0.243396 0.640271,-0.243396 0.131774,0 0.257348,0.02791 0.125574,0.02635 0.243396,0.08061 z"
     id="path1976"
     style="font-size:3.175px;fill:none;stroke:#000000;stroke-width:0.2" />
  <path
     d="m 44.802933,18.8054 v 0.492993 h 0.587561 v 0.221692 h -0.587561 v 0.942578 q 0,0.21239 0.05736,0.272852 0.05891,0.06046 0.237194,0.06046 h 0.293006 v 0.238745 h -0.293006 q -0.330212,0 -0.455786,-0.122473 -0.125573,-0.124023 -0.125573,-0.449585 v -0.942578 h -0.20929 v -0.221692 h 0.20929 V 18.8054 Z"
     id="path1978"
     style="font-size:3.175px;fill:none;stroke:#000000;stroke-width:0.2" />
  <path
     d="m 45.73621,20.349492 v -1.051099 h 0.285254 v 1.040247 q 0,0.246496 0.09612,0.37052 0.09612,0.122473 0.288355,0.122473 0.230993,0 0.364319,-0.147278 0.134875,-0.147278 0.134875,-0.401526 v -0.984436 h 0.285254 v 1.736328 h -0.285254 v -0.26665 q -0.103869,0.15813 -0.241846,0.235645 -0.136425,0.07596 -0.31781,0.07596 -0.299206,0 -0.454235,-0.186035 -0.15503,-0.186035 -0.15503,-0.544153 z m 0.717786,-1.092957 z"
     id="path1980"
     style="font-size:3.175px;fill:none;stroke:#000000;stroke-width:0.2" />
  <path
     d="m 48.784085,19.565044 q -0.04806,-0.02791 -0.105419,-0.04031 -0.05581,-0.01395 -0.124024,-0.01395 -0.241846,0 -0.37207,0.15813 -0.128675,0.15658 -0.128675,0.451136 v 0.914672 h -0.286804 v -1.736328 h 0.286804 v 0.269751 q 0.08992,-0.15813 0.234095,-0.234094 0.144177,-0.07752 0.350366,-0.07752 0.02946,0 0.06511,0.0047 0.03566,0.0031 0.07906,0.01085 z"
     id="path1982"
     style="font-size:3.175px;fill:none;stroke:#000000;stroke-width:0.2" />
  <path
     d="m 49.083293,19.298393 h 0.285254 v 1.736328 h -0.285254 z m 0,-0.675927 h 0.285254 v 0.361218 h -0.285254 z"
     id="path1984"
     style="font-size:3.175px;fill:none;stroke:#000000;stroke-width:0.2" />
  <path
     d="m 51.408732,19.986723 v 1.047998 h -0.285254 v -1.038696 q 0,-0.246496 -0.09612,-0.36897 -0.09612,-0.122473 -0.288355,-0.122473 -0.230993,0 -0.364319,0.147278 -0.133325,0.147278 -0.133325,0.401526 v 0.981335 h -0.286804 v -1.736328 h 0.286804 v 0.269751 q 0.10232,-0.156579 0.240296,-0.234094 0.139526,-0.07752 0.32091,-0.07752 0.299207,0 0.452686,0.186036 0.153479,0.184484 0.153479,0.544152 z"
     id="path1986"
     style="font-size:3.175px;fill:none;stroke:#000000;stroke-width:0.2" />
  <path
     d="m 53.120254,20.146404 q 0,-0.310059 -0.128674,-0.480591 -0.127124,-0.170533 -0.358117,-0.170533 -0.229444,0 -0.358118,0.170533 -0.127124,0.170532 -0.127124,0.480591 0,0.308508 0.127124,0.47904 0.128674,0.170532 0.358118,0.170532 0.230993,0 0.358117,-0.170532 0.128674,-0.170532 0.128674,-0.47904 z m 0.285254,0.672827 q 0,0.443383 -0.196887,0.658874 -0.196887,0.217041 -0.603064,0.217041 -0.150378,0 -0.283703,-0.02325 -0.133326,-0.0217 -0.258899,-0.06821 v -0.277503 q 0.125573,0.06821 0.248047,0.100769 0.122473,0.03256 0.249597,0.03256 0.280603,0 0.420129,-0.147278 0.139526,-0.145728 0.139526,-0.441834 v -0.141076 q -0.08837,0.153479 -0.226342,0.229443 -0.137976,0.07596 -0.330213,0.07596 -0.31936,0 -0.514697,-0.243396 -0.195337,-0.243396 -0.195337,-0.644921 0,-0.403077 0.195337,-0.646473 0.195337,-0.243396 0.514697,-0.243396 0.192237,0 0.330213,0.07597 0.137976,0.07596 0.226342,0.229443 v -0.26355 h 0.285254 z"
     id="path1988"
     style="font-size:3.175px;fill:none;stroke:#000000;stroke-width:0.2" />
  <path
     d="m 55.327874,18.977483 v 0.869714 h 0.393774 q 0.218592,0 0.337964,-0.113171 0.119373,-0.113172 0.119373,-0.322461 0,-0.20774 -0.119373,-0.320911 -0.119372,-0.113171 -0.337964,-0.113171 z m -0.313159,-0.257349 h 0.706933 q 0.389124,0 0.587561,0.176733 0.199988,0.175184 0.199988,0.514698 0,0.342614 -0.199988,0.517798 -0.198437,0.175183 -0.587561,0.175183 h -0.393774 v 0.930175 h -0.313159 z"
     id="path1990"
     style="font-size:3.175px;fill:none;stroke:#000000;stroke-width:0.2" />
  <path
     d="m 57.867252,19.565044 q -0.04806,-0.02791 -0.10542,-0.04031 -0.05581,-0.01395 -0.124024,-0.01395 -0.241845,0 -0.37207,0.15813 -0.128674,0.15658 -0.128674,0.451136 v 0.914672 h -0.286805 v -1.736328 h 0.286805 v 0.269751 q 0.08992,-0.15813 0.234094,-0.234094 0.144177,-0.07752 0.350366,-0.07752 0.02946,0 0.06511,0.0047 0.03566,0.0031 0.07906,0.01085 z"
     id="path1992"
     style="font-size:3.175px;fill:none;stroke:#000000;stroke-width:0.2" />
  <path
     d="m 58.769523,19.498381 q -0.229444,0 -0.362769,0.179834 -0.133325,0.178284 -0.133325,0.489893 0,0.311609 0.131775,0.491442 0.133325,0.178284 0.364319,0.178284 0.227893,0 0.361218,-0.179834 0.133325,-0.179834 0.133325,-0.489892 0,-0.308509 -0.133325,-0.488343 -0.133325,-0.181384 -0.361218,-0.181384 z m 0,-0.241846 q 0.37207,0 0.58446,0.241846 0.21239,0.241846 0.21239,0.669727 0,0.42633 -0.21239,0.669726 -0.21239,0.241846 -0.58446,0.241846 -0.373621,0 -0.586011,-0.241846 -0.21084,-0.243396 -0.21084,-0.669726 0,-0.427881 0.21084,-0.669727 0.21239,-0.241846 0.586011,-0.241846 z"
     id="path1994"
     style="font-size:3.175px;fill:none;stroke:#000000;stroke-width:0.2" />
  <path
     d="m 60.039212,19.298393 h 0.285254 v 1.767334 q 0,0.331763 -0.127124,0.480591 -0.125574,0.148828 -0.406177,0.148828 h -0.10852 V 21.4533 h 0.07596 q 0.162781,0 0.221692,-0.07596 0.05891,-0.07441 0.05891,-0.311609 z m 0,-0.675927 h 0.285254 v 0.361218 h -0.285254 z"
     id="path1996"
     style="font-size:3.175px;fill:none;stroke:#000000;stroke-width:0.2" />
  <path
     d="m 62.406511,20.095244 v 0.139526 h -1.311548 q 0.0186,0.294556 0.176733,0.449585 0.159681,0.153479 0.443384,0.153479 0.164331,0 0.31781,-0.04031 0.15503,-0.04031 0.306958,-0.120923 v 0.269751 q -0.153479,0.06511 -0.314709,0.09922 -0.161231,0.03411 -0.327112,0.03411 -0.415478,0 -0.658874,-0.241846 -0.241846,-0.241846 -0.241846,-0.654223 0,-0.426331 0.229443,-0.675928 0.230994,-0.251148 0.621668,-0.251148 0.350366,0 0.553454,0.226343 0.204639,0.224793 0.204639,0.612366 z m -0.285254,-0.08372 q -0.0031,-0.234094 -0.131775,-0.373621 -0.127124,-0.139526 -0.337964,-0.139526 -0.238745,0 -0.382922,0.134876 -0.142627,0.134875 -0.164331,0.379821 z"
     id="path1998"
     style="font-size:3.175px;fill:none;stroke:#000000;stroke-width:0.2" />
  <path
     d="m 64.124236,19.365056 v 0.26665 q -0.120923,-0.06666 -0.243396,-0.09922 -0.120923,-0.03411 -0.244947,-0.03411 -0.277502,0 -0.430981,0.176733 -0.153479,0.175184 -0.153479,0.492994 0,0.31781 0.153479,0.494543 0.153479,0.175183 0.430981,0.175183 0.124024,0 0.244947,-0.03256 0.122473,-0.03411 0.243396,-0.100769 v 0.26355 q -0.119373,0.05581 -0.248047,0.08372 -0.127124,0.02791 -0.271302,0.02791 -0.392224,0 -0.623217,-0.246497 -0.230994,-0.246496 -0.230994,-0.665075 0,-0.424781 0.232544,-0.668177 0.234094,-0.243396 0.640271,-0.243396 0.131775,0 0.257349,0.02791 0.125573,0.02635 0.243396,0.08061 z"
     id="path2000"
     style="font-size:3.175px;fill:none;stroke:#000000;stroke-width:0.2" />
  <path
     d="m 64.902481,18.8054 v 0.492993 h 0.587561 v 0.221692 h -0.587561 v 0.942578 q 0,0.21239 0.05736,0.272852 0.05891,0.06046 0.237195,0.06046 h 0.293005 v 0.238745 h -0.293005 q -0.330213,0 -0.455786,-0.122473 -0.125574,-0.124023 -0.125574,-0.449585 v -0.942578 h -0.20929 v -0.221692 h 0.20929 V 18.8054 Z"
     id="path2002"
     style="font-size:3.175px;fill:none;stroke:#000000;stroke-width:0.2" />
  <path
     d="M 19.708341,22.688884 H 20.0215 v 2.314587 h -0.313159 z"
     id="path2004"
     style="font-size:3.175px;fill:none;stroke:#000000;stroke-width:0.2" />
  <path
     d="m 20.644718,22.688884 h 0.466638 l 0.590662,1.575098 0.593762,-1.575098 h 0.466638 v 2.314587 h -0.305407 v -2.032434 l -0.596863,1.5875 h -0.31471 l -0.596862,-1.5875 v 2.032434 h -0.303858 z"
     id="path2006"
     style="font-size:3.175px;fill:none;stroke:#000000;stroke-width:0.2" />
  <path
     d="m 23.063175,22.688884 h 1.95802 v 0.26355 H 24.19954 v 2.051037 h -0.31471 v -2.051037 h -0.821655 z"
     id="path2008"
     style="font-size:3.175px;fill:none;stroke:#000000;stroke-width:0.2" />
  <path
     d="m 27.106339,22.997392 -0.42478,1.151868 h 0.851111 z m -0.176733,-0.308508 h 0.355017 l 0.882117,2.314587 h -0.325562 l -0.21084,-0.593762 h -1.043347 l -0.21084,0.593762 h -0.330212 z"
     id="path2010"
     style="font-size:3.175px;fill:none;stroke:#000000;stroke-width:0.2" />
  <path
     d="m 28.718644,22.77415 v 0.492993 h 0.587561 v 0.221692 h -0.587561 v 0.942578 q 0,0.21239 0.05736,0.272852 0.05891,0.06046 0.237195,0.06046 h 0.293005 V 25.00347 H 29.0132 q -0.330213,0 -0.455786,-0.122473 -0.125574,-0.124023 -0.125574,-0.449585 v -0.942578 h -0.20929 v -0.221692 h 0.20929 V 22.77415 Z"
     id="path2012"
     style="font-size:3.175px;fill:none;stroke:#000000;stroke-width:0.2" />
  <path
     d="m 29.681376,22.591215 h 0.285254 v 2.412256 h -0.285254 z"
     id="path2014"
     style="font-size:3.175px;fill:none;stroke:#000000;stroke-width:0.2" />
  <path
     d="m 31.352592,24.130656 q -0.345716,0 -0.479041,0.07906 -0.133325,0.07907 -0.133325,0.269751 0,0.151929 0.09922,0.241846 0.100769,0.08837 0.272851,0.08837 0.237195,0 0.379822,-0.167432 0.144177,-0.168982 0.144177,-0.448035 v -0.06356 z m 0.568957,-0.117822 v 0.990637 h -0.285254 v -0.263549 q -0.09767,0.158129 -0.243396,0.234094 -0.145727,0.07441 -0.356567,0.07441 -0.26665,0 -0.42478,-0.148828 -0.15658,-0.150379 -0.15658,-0.401526 0,-0.293006 0.195337,-0.441834 0.196887,-0.148828 0.586011,-0.148828 h 0.399975 V 23.8795 q 0,-0.196887 -0.130224,-0.303857 -0.128675,-0.108521 -0.362769,-0.108521 -0.148828,0 -0.289905,0.03566 -0.141076,0.03566 -0.271301,0.10697 v -0.26355 q 0.15658,-0.06046 0.303858,-0.08992 0.147277,-0.03101 0.286804,-0.03101 0.376721,0 0.562756,0.195337 0.186035,0.195337 0.186035,0.592212 z"
     id="path2016"
     style="font-size:3.175px;fill:none;stroke:#000000;stroke-width:0.2" />
  <path
     d="m 33.952433,23.955473 v 1.047998 h -0.285254 v -1.038696 q 0,-0.246497 -0.09612,-0.36897 -0.09612,-0.122473 -0.288355,-0.122473 -0.230993,0 -0.364318,0.147278 -0.133326,0.147278 -0.133326,0.401526 v 0.981335 h -0.286804 v -1.736328 h 0.286804 v 0.269751 q 0.10232,-0.156579 0.240296,-0.234094 0.139526,-0.07752 0.32091,-0.07752 0.299207,0 0.452686,0.186035 0.153479,0.184485 0.153479,0.544153 z"
     id="path2018"
     style="font-size:3.175px;fill:none;stroke:#000000;stroke-width:0.2" />
  <path
     d="m 34.803544,22.77415 v 0.492993 h 0.587561 v 0.221692 h -0.587561 v 0.942578 q 0,0.21239 0.05736,0.272852 0.05891,0.06046 0.237195,0.06046 h 0.293005 V 25.00347 H 35.0981 q -0.330213,0 -0.455786,-0.122473 -0.125574,-0.124023 -0.125574,-0.449585 v -0.942578 h -0.20929 v -0.221692 h 0.20929 V 22.77415 Z"
     id="path2020"
     style="font-size:3.175px;fill:none;stroke:#000000;stroke-width:0.2" />
  <path
     d="m 35.766276,23.267143 h 0.285254 v 1.736328 h -0.285254 z m 0,-0.675928 h 0.285254 v 0.361219 h -0.285254 z"
     id="path2022"
     style="font-size:3.175px;fill:none;stroke:#000000;stroke-width:0.2" />
  <path
     d="m 36.818925,24.136858 q 0,0.314709 0.128674,0.494543 0.130225,0.178284 0.356567,0.178284 0.226343,0 0.356568,-0.178284 0.130224,-0.179834 0.130224,-0.494543 0,-0.31471 -0.130224,-0.492994 -0.130225,-0.179834 -0.356568,-0.179834 -0.226342,0 -0.356567,0.179834 -0.128674,0.178284 -0.128674,0.492994 z m 0.972033,0.606164 q -0.08992,0.155029 -0.227893,0.230994 -0.136425,0.07441 -0.328662,0.07441 -0.314709,0 -0.513147,-0.251148 -0.196887,-0.251147 -0.196887,-0.660424 0,-0.409278 0.196887,-0.660425 0.198438,-0.251148 0.513147,-0.251148 0.192237,0 0.328662,0.07597 0.137976,0.07441 0.227893,0.229443 v -0.26355 h 0.285254 v 2.396753 h -0.285254 z"
     id="path2024"
     style="font-size:3.175px;fill:none;stroke:#000000;stroke-width:0.2" />
  <path
     d="m 38.634318,24.318242 v -1.051099 h 0.285254 v 1.040247 q 0,0.246496 0.09612,0.37052 0.09612,0.122473 0.288354,0.122473 0.230994,0 0.364319,-0.147278 0.134876,-0.147278 0.134876,-0.401526 v -0.984436 h 0.285254 v 1.736328 h -0.285254 v -0.26665 q -0.10387,0.15813 -0.241846,0.235644 -0.136426,0.07597 -0.31781,0.07597 -0.299207,0 -0.454236,-0.186035 -0.155029,-0.186035 -0.155029,-0.544153 z m 0.717785,-1.092957 z"
     id="path2026"
     style="font-size:3.175px;fill:none;stroke:#000000;stroke-width:0.2" />
  <path
     d="m 42.161233,24.063994 v 0.139526 h -1.311547 q 0.0186,0.294556 0.176733,0.449585 0.15968,0.153479 0.443384,0.153479 0.164331,0 0.31781,-0.04031 0.155029,-0.04031 0.306958,-0.120922 v 0.269751 q -0.153479,0.06511 -0.31471,0.09922 -0.16123,0.03411 -0.327111,0.03411 -0.415479,0 -0.658875,-0.241846 -0.241846,-0.241846 -0.241846,-0.654224 0,-0.42633 0.229444,-0.675927 0.230993,-0.251148 0.621667,-0.251148 0.350366,0 0.553455,0.226343 0.204638,0.224793 0.204638,0.612366 z m -0.285253,-0.08372 q -0.0031,-0.234094 -0.131775,-0.373621 -0.127124,-0.139526 -0.337964,-0.139526 -0.238745,0 -0.382923,0.134875 -0.142626,0.134876 -0.164331,0.379822 z"
     id="path2028"
     style="font-size:3.175px;fill:none;stroke:#000000;stroke-width:0.2" />
  <path
     d="M 19.708341,26.922215 H 20.0215 v 2.153357 q 0,0.418579 -0.15968,0.607715 -0.15813,0.189135 -0.510046,0.189135 h -0.119373 v -0.263549 h 0.09767 q 0.207739,0 0.293005,-0.116272 0.08527,-0.116272 0.08527,-0.417029 z"
     id="path2030"
     style="font-size:3.175px;fill:none;stroke:#000000;stroke-width:0.2" />
  <path
     d="m 21.421415,28.363987 q -0.345715,0 -0.479041,0.07906 -0.133325,0.07906 -0.133325,0.269751 0,0.151929 0.09922,0.241846 0.100769,0.08837 0.272852,0.08837 0.237194,0 0.379821,-0.167432 0.144178,-0.168982 0.144178,-0.448035 v -0.06356 z m 0.568957,-0.117822 v 0.990637 h -0.285253 v -0.26355 q -0.09767,0.15813 -0.243396,0.234095 -0.145728,0.07441 -0.356568,0.07441 -0.26665,0 -0.42478,-0.148828 -0.15658,-0.150379 -0.15658,-0.401526 0,-0.293006 0.195337,-0.441834 0.196887,-0.148828 0.586011,-0.148828 h 0.399976 v -0.02791 q 0,-0.196887 -0.130225,-0.303858 -0.128674,-0.10852 -0.362769,-0.10852 -0.148828,0 -0.289904,0.03566 -0.141077,0.03566 -0.271302,0.10697 v -0.26355 q 0.15658,-0.06046 0.303858,-0.08992 0.147278,-0.03101 0.286804,-0.03101 0.376721,0 0.562756,0.195337 0.186035,0.195337 0.186035,0.592212 z"
     id="path2032"
     style="font-size:3.175px;fill:none;stroke:#000000;stroke-width:0.2" />
  <path
     d="m 22.373295,27.500474 h 0.302307 l 0.542603,1.457275 0.542602,-1.457275 h 0.302307 l -0.651123,1.736328 h -0.387573 z"
     id="path2034"
     style="font-size:3.175px;fill:none;stroke:#000000;stroke-width:0.2" />
  <path
     d="m 24.456888,27.500474 h 0.285254 v 1.736328 h -0.285254 z m 0,-0.675928 h 0.285254 v 0.361219 h -0.285254 z"
     id="path2036"
     style="font-size:3.175px;fill:none;stroke:#000000;stroke-width:0.2" />
  <path
     d="m 26.824186,28.297325 v 0.139526 h -1.311548 q 0.0186,0.294556 0.176733,0.449585 0.159681,0.153479 0.443384,0.153479 0.164331,0 0.31781,-0.04031 0.15503,-0.04031 0.306958,-0.120922 v 0.26975 q -0.153479,0.06511 -0.314709,0.09922 -0.161231,0.03411 -0.327112,0.03411 -0.415478,0 -0.658874,-0.241846 -0.241846,-0.241846 -0.241846,-0.654224 0,-0.42633 0.229443,-0.675927 0.230994,-0.251148 0.621668,-0.251148 0.350366,0 0.553454,0.226343 0.204639,0.224792 0.204639,0.612366 z m -0.285254,-0.08372 q -0.0031,-0.234094 -0.131775,-0.373621 -0.127124,-0.139526 -0.337964,-0.139526 -0.238745,0 -0.382922,0.134875 -0.142627,0.134876 -0.164331,0.379822 z"
     id="path2038"
     style="font-size:3.175px;fill:none;stroke:#000000;stroke-width:0.2" />
  <path
     d="m 28.298515,27.767124 q -0.04806,-0.02791 -0.10542,-0.04031 -0.05581,-0.01395 -0.124024,-0.01395 -0.241846,0 -0.37207,0.15813 -0.128674,0.15658 -0.128674,0.451135 v 0.914673 h -0.286805 v -1.736328 h 0.286805 v 0.269751 q 0.08992,-0.15813 0.234094,-0.234094 0.144177,-0.07752 0.350366,-0.07752 0.02946,0 0.06511,0.0047 0.03566,0.0031 0.07906,0.01085 z"
     id="path2040"
     style="font-size:3.175px;fill:none;stroke:#000000;stroke-width:0.2" />
  <path
     d="m 29.619364,26.922215 h 1.330152 v 0.26355 h -1.016992 v 0.682129 h 0.917773 v 0.263549 h -0.917773 v 1.105359 h -0.31316 z"
     id="path2042"
     style="font-size:3.175px;fill:none;stroke:#000000;stroke-width:0.2" />
  <path
     d="m 31.445609,26.922215 h 1.463476 v 0.26355 h -1.150317 v 0.685229 h 1.102258 v 0.26355 h -1.102258 v 0.838708 h 1.178223 v 0.26355 h -1.491382 z"
     id="path2044"
     style="font-size:3.175px;fill:none;stroke:#000000;stroke-width:0.2" />
  <path
     d="m 34.549296,28.151597 q 0.100769,0.03411 0.195337,0.145728 0.09612,0.111621 0.192236,0.306958 l 0.31781,0.632519 H 34.918266 L 34.62216,28.64304 q -0.114722,-0.232544 -0.223243,-0.308508 -0.10697,-0.07597 -0.293005,-0.07597 h -0.341064 v 0.978235 h -0.31316 V 26.92221 h 0.706934 q 0.396875,0 0.592212,0.165881 0.195337,0.165882 0.195337,0.500745 0,0.218591 -0.10232,0.362768 -0.100769,0.144178 -0.294555,0.199988 z m -0.784448,-0.972034 v 0.821656 h 0.393774 q 0.226343,0 0.341064,-0.10387 0.116272,-0.10542 0.116272,-0.308508 0,-0.203089 -0.116272,-0.305408 -0.114721,-0.10387 -0.341064,-0.10387 z"
     id="path2046"
     style="font-size:3.175px;fill:none;stroke:#000000;stroke-width:0.2" />
  <path
     d="m 35.657755,26.922215 h 0.421679 l 1.026294,1.936316 v -1.936316 h 0.303858 v 2.314587 h -0.42168 l -1.026294,-1.936316 v 1.936316 h -0.303857 z"
     id="path2048"
     style="font-size:3.175px;fill:none;stroke:#000000;stroke-width:0.2" />
  <path
     d="m 38.8064,27.230723 -0.42478,1.151868 h 0.851111 z m -0.176733,-0.308508 h 0.355017 l 0.882117,2.314587 h -0.325562 l -0.21084,-0.593762 h -1.043347 l -0.21084,0.593762 H 37.746 Z"
     id="path2050"
     style="font-size:3.175px;fill:none;stroke:#000000;stroke-width:0.2" />
  <path
     d="m 40.204765,26.922215 h 0.42168 l 1.026294,1.936316 v -1.936316 h 0.303857 v 2.314587 h -0.42168 l -1.026294,-1.936316 v 1.936316 h -0.303857 z"
     id="path2052"
     style="font-size:3.175px;fill:none;stroke:#000000;stroke-width:0.2" />
  <path
     d="m 42.892972,27.179563 v 1.799891 h 0.378271 q 0.479041,0 0.700733,-0.217041 0.223242,-0.217041 0.223242,-0.68523 0,-0.465088 -0.223242,-0.680579 -0.221692,-0.217041 -0.700733,-0.217041 z m -0.313159,-0.257348 h 0.643371 q 0.672827,0 0.987537,0.280603 0.314709,0.279053 0.314709,0.874365 0,0.598413 -0.316259,0.879016 -0.31626,0.280603 -0.985987,0.280603 h -0.643371 z"
     id="path2054"
     style="font-size:3.175px;fill:none;stroke:#000000;stroke-width:0.2" />
  <path
     d="m 45.024625,26.922215 h 1.463477 v 0.26355 h -1.150317 v 0.685229 h 1.102258 v 0.26355 h -1.102258 v 0.838708 h 1.178222 v 0.26355 h -1.491382 z"
     id="path2056"
     style="font-size:3.175px;fill:none;stroke:#000000;stroke-width:0.2" />
  <path
     d="m 46.897379,26.922215 h 1.818494 v 0.238745 l -1.463477,1.812292 h 1.499133 v 0.26355 h -1.889807 v -0.238745 l 1.463477,-1.812292 h -1.42782 z"
     id="path2058"
     style="font-size:3.175px;fill:none;stroke:#000000;stroke-width:0.2" />
  <path
     d="M 19.708341,30.890965 H 20.0215 v 2.153357 q 0,0.418579 -0.15968,0.607715 -0.15813,0.189135 -0.510046,0.189135 h -0.119373 v -0.26355 h 0.09767 q 0.207739,0 0.293005,-0.116272 0.08527,-0.116271 0.08527,-0.417028 z"
     id="path2060"
     style="font-size:3.175px;fill:none;stroke:#000000;stroke-width:0.2" />
  <path
     d="m 21.305143,31.669212 q -0.229443,0 -0.362769,0.179834 -0.133325,0.178283 -0.133325,0.489892 0,0.311609 0.131775,0.491443 0.133325,0.178284 0.364319,0.178284 0.227893,0 0.361218,-0.179834 0.133325,-0.179834 0.133325,-0.489893 0,-0.308508 -0.133325,-0.488342 -0.133325,-0.181384 -0.361218,-0.181384 z m 0,-0.241846 q 0.37207,0 0.58446,0.241846 0.212391,0.241846 0.212391,0.669726 0,0.426331 -0.212391,0.669727 -0.21239,0.241846 -0.58446,0.241846 -0.373621,0 -0.586011,-0.241846 -0.21084,-0.243396 -0.21084,-0.669727 0,-0.42788 0.21084,-0.669726 0.21239,-0.241846 0.586011,-0.241846 z"
     id="path2062"
     style="font-size:3.175px;fill:none;stroke:#000000;stroke-width:0.2" />
  <path
     d="m 24.018155,32.157554 v 1.047998 h -0.285253 v -1.038696 q 0,-0.246497 -0.09612,-0.36897 -0.09612,-0.122473 -0.288354,-0.122473 -0.230994,0 -0.364319,0.147278 -0.133325,0.147278 -0.133325,0.401526 v 0.981335 H 22.56398 v -2.412256 h 0.286804 v 0.945679 q 0.102319,-0.15658 0.240295,-0.234094 0.139527,-0.07751 0.320911,-0.07751 0.299206,0 0.452685,0.186035 0.153479,0.184485 0.153479,0.544153 z"
     id="path2064"
     style="font-size:3.175px;fill:none;stroke:#000000;stroke-width:0.2" />
  <path
     d="m 25.376212,32.332737 q -0.345715,0 -0.47904,0.07906 -0.133325,0.07906 -0.133325,0.269751 0,0.151929 0.09922,0.241846 0.100769,0.08837 0.272852,0.08837 0.237195,0 0.379822,-0.167432 0.144177,-0.168982 0.144177,-0.448035 v -0.06356 z m 0.568958,-0.117822 v 0.990637 h -0.285254 v -0.26355 q -0.09767,0.15813 -0.243396,0.234095 -0.145728,0.07441 -0.356567,0.07441 -0.266651,0 -0.424781,-0.148828 -0.156579,-0.150379 -0.156579,-0.401526 0,-0.293006 0.195337,-0.441834 0.196887,-0.148828 0.58601,-0.148828 h 0.399976 v -0.02791 q 0,-0.196887 -0.130225,-0.303858 -0.128674,-0.10852 -0.362768,-0.10852 -0.148828,0 -0.289905,0.03566 -0.141077,0.03566 -0.271301,0.10697 v -0.26355 q 0.156579,-0.06046 0.303857,-0.08992 0.147278,-0.03101 0.286804,-0.03101 0.376721,0 0.562757,0.195337 0.186035,0.195337 0.186035,0.592212 z"
     id="path2066"
     style="font-size:3.175px;fill:none;stroke:#000000;stroke-width:0.2" />
  <path
     d="m 27.976054,32.157554 v 1.047998 H 27.6908 v -1.038696 q 0,-0.246497 -0.09612,-0.36897 -0.09612,-0.122473 -0.288355,-0.122473 -0.230994,0 -0.364319,0.147278 -0.133325,0.147278 -0.133325,0.401526 v 0.981335 h -0.286804 v -1.736328 h 0.286804 v 0.269751 q 0.102319,-0.15658 0.240295,-0.234094 0.139527,-0.07751 0.320911,-0.07751 0.299207,0 0.452686,0.186035 0.153479,0.184485 0.153479,0.544153 z"
     id="path2068"
     style="font-size:3.175px;fill:none;stroke:#000000;stroke-width:0.2" />
  <path
     d="m 29.988334,32.157554 v 1.047998 H 29.70308 v -1.038696 q 0,-0.246497 -0.09612,-0.36897 -0.09612,-0.122473 -0.288354,-0.122473 -0.230994,0 -0.364319,0.147278 -0.133326,0.147278 -0.133326,0.401526 v 0.981335 h -0.286804 v -1.736328 h 0.286804 v 0.269751 q 0.10232,-0.15658 0.240296,-0.234094 0.139526,-0.07751 0.320911,-0.07751 0.299206,0 0.452685,0.186035 0.153479,0.184485 0.153479,0.544153 z"
     id="path2070"
     style="font-size:3.175px;fill:none;stroke:#000000;stroke-width:0.2" />
  <path
     d="m 32.042471,32.266075 v 0.139526 h -1.311547 q 0.0186,0.294556 0.176733,0.449585 0.15968,0.153479 0.443384,0.153479 0.164331,0 0.31781,-0.04031 0.155029,-0.04031 0.306958,-0.120923 v 0.269751 q -0.153479,0.06511 -0.31471,0.09922 -0.16123,0.03411 -0.327111,0.03411 -0.415479,0 -0.658875,-0.241846 -0.241846,-0.241846 -0.241846,-0.654224 0,-0.42633 0.229444,-0.675927 0.230993,-0.251148 0.621667,-0.251148 0.350366,0 0.553455,0.226343 0.204638,0.224792 0.204638,0.612366 z m -0.285253,-0.08372 q -0.0031,-0.234094 -0.131775,-0.373621 -0.127124,-0.139526 -0.337964,-0.139526 -0.238745,0 -0.382923,0.134875 -0.142626,0.134876 -0.164331,0.379822 z"
     id="path2072"
     style="font-size:3.175px;fill:none;stroke:#000000;stroke-width:0.2" />
  <path
     d="m 33.617569,31.520384 v 0.269751 q -0.120923,-0.06201 -0.251147,-0.09302 -0.130225,-0.03101 -0.269751,-0.03101 -0.21239,0 -0.319361,0.06511 -0.10542,0.06511 -0.10542,0.195336 0,0.09922 0.07597,0.15658 0.07596,0.05581 0.305408,0.10697 l 0.09767,0.0217 q 0.303857,0.06511 0.430981,0.184485 0.128675,0.117822 0.128675,0.330213 0,0.241845 -0.192237,0.382922 -0.190686,0.141077 -0.525549,0.141077 -0.139526,0 -0.291455,-0.02791 -0.150378,-0.02636 -0.31781,-0.08062 v -0.294556 q 0.15813,0.08217 0.311609,0.124024 0.153479,0.04031 0.303857,0.04031 0.201538,0 0.310059,-0.06821 0.10852,-0.06976 0.10852,-0.195337 0,-0.116272 -0.07906,-0.178284 -0.07751,-0.06201 -0.342614,-0.119373 l -0.09922,-0.02325 q -0.2651,-0.05581 -0.382922,-0.170532 -0.117823,-0.116272 -0.117823,-0.31781 0,-0.244946 0.173633,-0.378272 0.173633,-0.133325 0.492993,-0.133325 0.15813,0 0.297657,0.02325 0.139526,0.02325 0.257348,0.06976 z"
     id="path2074"
     style="font-size:3.175px;fill:none;stroke:#000000;stroke-width:0.2" />
  <path
     d="m 36.284073,32.120347 q 0.100769,0.03411 0.195337,0.145728 0.09612,0.111621 0.192236,0.306958 l 0.317811,0.632519 H 36.653043 L 36.356937,32.61179 q -0.114722,-0.232544 -0.223242,-0.308508 -0.10697,-0.07597 -0.293006,-0.07597 h -0.341064 v 0.978235 H 35.186466 V 30.89096 h 0.706933 q 0.396875,0 0.592212,0.165881 0.195337,0.165881 0.195337,0.500745 0,0.218591 -0.102319,0.362768 -0.100769,0.144178 -0.294556,0.199988 z m -0.784448,-0.972034 v 0.821656 h 0.393774 q 0.226343,0 0.341065,-0.10387 0.116272,-0.10542 0.116272,-0.308508 0,-0.203089 -0.116272,-0.305408 -0.114722,-0.10387 -0.341065,-0.10387 z"
     id="path2076"
     style="font-size:3.175px;fill:none;stroke:#000000;stroke-width:0.2" />
  <path
     d="m 37.356875,30.890965 h 0.31471 v 1.406115 q 0,0.372071 0.134875,0.536402 0.134876,0.162781 0.437183,0.162781 0.300757,0 0.435632,-0.162781 0.134876,-0.164331 0.134876,-0.536402 v -1.406115 h 0.314709 v 1.444873 q 0,0.452685 -0.224792,0.683679 -0.223243,0.230994 -0.660425,0.230994 -0.438733,0 -0.663526,-0.230994 -0.223242,-0.230994 -0.223242,-0.683679 z m 1.032495,-0.584461 h 0.31471 v 0.31471 h -0.31471 z m -0.606164,0 h 0.314709 v 0.31471 h -0.314709 z"
     id="path2078"
     style="font-size:3.175px;fill:none;stroke:#000000;stroke-width:0.2" />
  <path
     d="m 41.103935,30.966929 v 0.305408 q -0.178284,-0.08527 -0.336414,-0.127124 -0.15813,-0.04186 -0.305407,-0.04186 -0.255799,0 -0.395325,0.09922 -0.137976,0.09922 -0.137976,0.282153 0,0.153479 0.09147,0.232544 0.09302,0.07752 0.350366,0.125574 l 0.189136,0.03876 q 0.350366,0.06666 0.516248,0.235644 0.167431,0.167432 0.167431,0.449585 0,0.336414 -0.226343,0.510047 -0.224792,0.173633 -0.660424,0.173633 -0.164331,0 -0.350367,-0.03721 -0.184484,-0.03721 -0.382922,-0.110071 v -0.322461 q 0.190686,0.10697 0.373621,0.16123 0.182934,0.05426 0.359668,0.05426 0.2682,0 0.413928,-0.10542 0.145727,-0.10542 0.145727,-0.300757 0,-0.170532 -0.10542,-0.266651 -0.103869,-0.09612 -0.342614,-0.144177 l -0.190686,-0.03721 q -0.350367,-0.06976 -0.506946,-0.218591 -0.15658,-0.148828 -0.15658,-0.413928 0,-0.306958 0.215491,-0.483692 0.217041,-0.176733 0.596863,-0.176733 0.162781,0 0.331763,0.02946 0.168981,0.02946 0.345715,0.08837 z"
     id="path2080"
     style="font-size:3.175px;fill:none;stroke:#000000;stroke-width:0.2" />
  <path
     d="m 43.465031,31.069248 v 0.330213 q -0.15813,-0.147278 -0.337964,-0.220142 -0.178284,-0.07286 -0.379822,-0.07286 -0.396875,0 -0.607714,0.243396 -0.21084,0.241846 -0.21084,0.700733 0,0.457336 0.21084,0.700732 0.210839,0.241846 0.607714,0.241846 0.201538,0 0.379822,-0.07286 0.179834,-0.07286 0.337964,-0.220141 v 0.327111 q -0.164331,0.111622 -0.348816,0.167432 -0.182934,0.05581 -0.387573,0.05581 -0.525549,0 -0.827857,-0.320911 -0.302307,-0.322461 -0.302307,-0.879016 0,-0.558106 0.302307,-0.879016 0.302308,-0.322461 0.827857,-0.322461 0.207739,0 0.390674,0.05581 0.184485,0.05426 0.345715,0.164331 z"
     id="path2082"
     style="font-size:3.175px;fill:none;stroke:#000000;stroke-width:0.2" />
  <path
     d="m 43.948722,30.890965 h 0.31316 v 0.948779 h 1.137915 v -0.948779 h 0.313159 v 2.314587 h -0.313159 v -1.102258 h -1.137915 v 1.102258 h -0.31316 z"
     id="path2084"
     style="font-size:3.175px;fill:none;stroke:#000000;stroke-width:0.2" />
  <path
     d="m 46.336174,30.890965 h 1.463476 v 0.26355 h -1.150317 v 0.685229 h 1.102258 v 0.26355 h -1.102258 v 0.838708 h 1.178222 v 0.26355 h -1.491381 z"
     id="path2086"
     style="font-size:3.175px;fill:none;stroke:#000000;stroke-width:0.2" />
  <path
     d="m 49.43986,32.120347 q 0.100769,0.03411 0.195337,0.145728 0.09612,0.111621 0.192236,0.306958 l 0.31781,0.632519 H 49.808829 L 49.512724,32.61179 q -0.114722,-0.232544 -0.223243,-0.308508 -0.10697,-0.07597 -0.293005,-0.07597 h -0.341064 v 0.978235 h -0.31316 V 30.89096 h 0.706934 q 0.396875,0 0.592212,0.165881 0.195337,0.165881 0.195337,0.500745 0,0.218591 -0.10232,0.362768 -0.100769,0.144178 -0.294555,0.199988 z m -0.784448,-0.972034 v 0.821656 h 0.393774 q 0.226343,0 0.341064,-0.10387 0.116272,-0.10542 0.116272,-0.308508 0,-0.203089 -0.116272,-0.305408 -0.114721,-0.10387 -0.341064,-0.10387 z"
     id="path2088"
     style="font-size:3.175px;fill:none;stroke:#000000;stroke-width:0.2" />
  <path
     id="path1947"
     style="fill:none;fill-rule:evenodd;stroke:#000000;stroke-width:0.333406"
     d="m 85.794044,24.477487 c -0.445568,0.184175 -0.477406,-0.48803 -0.317596,-0.713782 0.433076,-0.61177 1.370021,-0.375966 1.798723,0.101556 0.766849,0.854185 0.361256,2.148869 -0.52834,2.753562 -1.305516,0.887412 -3.102382,0.324242 -3.915042,-0.916903 -1.083148,-1.654251 -0.313542,-3.836304 1.374276,-4.793344 2.123946,-1.204337 4.860552,-0.281208 6.031361,1.732246 1.418006,2.438561 0.270616,5.534564 -2.22021,6.833125 -2.935354,1.530308 -6.624781,0.240837 -8.147681,-2.547587 -1.758249,-3.219347 -0.229401,-7.236375 3.066146,-8.872907 3.744611,-1.859532 8.391426,-0.201554 10.264,3.362929 2.100744,3.99881 0.188966,8.939802 -3.912082,10.912688 -4.552942,2.190277 -10.159286,0.162808 -12.380319,-4.178271" />
</svg>
